<svg id="Слой_1" data-name="Слой 1" xmlns="http://www.w3.org/2000/svg" viewBox="0 0 620.94 219.77"><defs><style>.cls-1{fill:#fff;}.cls-2{fill:#7854f7;}.cls-3{fill:#ff9d28;}</style></defs><rect class="cls-1" x="0.1" width="620.94" height="219.77" rx="35.13"/><path d="M579.29,214.39H41.86A36.67,36.67,0,0,1,5.23,177.77V42A36.67,36.67,0,0,1,41.86,5.38H579.29A36.67,36.67,0,0,1,615.92,42V177.77A36.67,36.67,0,0,1,579.29,214.39ZM41.86,8.38A33.66,33.66,0,0,0,8.23,42V177.77a33.66,33.66,0,0,0,33.63,33.62H579.29a33.66,33.66,0,0,0,33.63-33.62V42A33.66,33.66,0,0,0,579.29,8.38Z"/><path class="cls-2" d="M68.31,42.46a16,16,0,0,1,15.63,0L121.64,64a1.93,1.93,0,0,1,1,1,2.24,2.24,0,0,1,0,2.48,2,2,0,0,1-1,1L107,76.94v23.32a1.51,1.51,0,0,1-.25,1c-.25.25-.25.5-.5.75h0l-.49.49c-.25.25-1,.75-1.49,1.24a38.6,38.6,0,0,1-6,3.72,48.37,48.37,0,0,1-44.65,0c-2-1-4-2.48-6-3.72a12.1,12.1,0,0,1-2-1.73,3.5,3.5,0,0,1-.75-1,1.57,1.57,0,0,1-.25-1V76.94L34.33,71V95.05a2.33,2.33,0,0,1-2.18,2.48,1.5,1.5,0,0,1-.3,0,2.85,2.85,0,0,1-2-.74,2.69,2.69,0,0,1-.74-1.74V66.53a1.9,1.9,0,0,1,.49-1.25,2,2,0,0,1,1-1ZM83.69,90.34a15.94,15.94,0,0,1-15.63,0L50,79.92V99a33.4,33.4,0,0,0,6.21,4,43.1,43.1,0,0,0,39.68,0,53.12,53.12,0,0,0,6.21-4V79.92ZM81.21,47.18A9.17,9.17,0,0,0,76,45.69a9.71,9.71,0,0,0-5.21,1.49L37.06,66.53,70.79,85.87A9.71,9.71,0,0,0,76,87.36a10.42,10.42,0,0,0,5.21-1.49l33.73-19.34Z"/><path d="M148.34,68.51v6.7h13.89v8.93H148.34v6.94H163V100H139.16V59.58H163v8.93Z"/><path d="M170.67,59.58h14.88a21.36,21.36,0,0,1,7.94,1.49,23.56,23.56,0,0,1,6.69,4.21,23.15,23.15,0,0,1,4.47,6.45,19.68,19.68,0,0,1,0,15.88,18.75,18.75,0,0,1-4.47,6.45,26.3,26.3,0,0,1-6.45,4.22,21.5,21.5,0,0,1-7.93,1.48H170.91Zm10.41,31.5h2.24a13.82,13.82,0,0,0,4.46-.74,17.28,17.28,0,0,0,3.72-2A11.12,11.12,0,0,0,195,79.92a17.38,17.38,0,0,0-.75-5,11.13,11.13,0,0,0-2.48-3.47A9.41,9.41,0,0,0,188,69.25a14.5,14.5,0,0,0-4.71-.74h-2.48Z"/><path d="M212.34,59.58h14.88a21.36,21.36,0,0,1,7.94,1.49,19.46,19.46,0,0,1,6.45,4.21,19.06,19.06,0,0,1,4.46,6.45,19.6,19.6,0,0,1,0,15.88,18.86,18.86,0,0,1-4.46,6.45,26.3,26.3,0,0,1-6.45,4.22,21.55,21.55,0,0,1-7.94,1.48H212.34Zm10.42,31.5h2.48a13.82,13.82,0,0,0,4.46-.74,17.28,17.28,0,0,0,3.72-2,10.82,10.82,0,0,0,2.48-3.47,12.93,12.93,0,0,0,1-5.21,17.38,17.38,0,0,0-.75-5,11.09,11.09,0,0,0-2.48-3.47A9.27,9.27,0,0,0,230,69a14.51,14.51,0,0,0-4.71-.75h-2.48Z"/><path d="M289,59.58V86.37a19.46,19.46,0,0,1-.5,3.72,14.23,14.23,0,0,1-1.24,3.47,15.86,15.86,0,0,1-2.48,3.23,8.93,8.93,0,0,1-3,2c-1,.5-2.23,1-3.22,1.49a21.88,21.88,0,0,1-3.47.74,34.65,34.65,0,0,1-7.2,0c-1.24-.24-2.48-.49-3.47-.74a7.67,7.67,0,0,1-3.22-1.49A13.06,13.06,0,0,1,256,93.56a14.23,14.23,0,0,1-1.24-3.47,18.7,18.7,0,0,1-.5-3.72V59.58h10.42V80.91a21.08,21.08,0,0,0,.25,4,14.13,14.13,0,0,0,.74,3.47,5.48,5.48,0,0,0,2.23,2.48,8.94,8.94,0,0,0,7.94,0,5.37,5.37,0,0,0,2.23-2.48,8.62,8.62,0,0,0,.75-3.47c0-1.24.25-2.48.25-4V59.58Z"/><path class="cls-2" d="M301.64,88.6a8.82,8.82,0,0,1,2.48.5,5.2,5.2,0,0,1,3.22,3.22,8.82,8.82,0,0,1,.5,2.48,8.68,8.68,0,0,1-.5,2.48,5.19,5.19,0,0,1-3.22,3.23,5.82,5.82,0,0,1-5,0,5.57,5.57,0,0,1-2-1.24,13.7,13.7,0,0,1-1.48-2,8.35,8.35,0,0,1-.5-2.48,8.48,8.48,0,0,1,.5-2.48,3.85,3.85,0,0,1,1.48-2A6.62,6.62,0,0,1,301.64,88.6Z"/><path class="cls-2" d="M314.29,59.58h16.87a24.43,24.43,0,0,1,5.95.74,12.56,12.56,0,0,1,4.71,2.48,13,13,0,0,1,3,4.22,12.54,12.54,0,0,1,1,6,13.24,13.24,0,0,1-3.72,10.42,14.89,14.89,0,0,1-10.66,3.23h-6.7V100H314.29Zm10.42,18.6h6a8.74,8.74,0,0,0,2.48-.49,3.35,3.35,0,0,0,1.74-1.49,5.67,5.67,0,0,0,.74-2.73,12.54,12.54,0,0,0-.49-3A3.33,3.33,0,0,0,333.39,69a8.42,8.42,0,0,0-2.48-.5h-6.2Z"/><path class="cls-2" d="M408.05,58.34a24.06,24.06,0,0,1,8.44,1.49A30.33,30.33,0,0,1,423.68,64a19.72,19.72,0,0,1,5,6.7,20,20,0,0,1,2,8.44,22.11,22.11,0,0,1-1.74,8.93,22.63,22.63,0,0,1-4.71,7.19A24,24,0,0,1,417,100a25.32,25.32,0,0,1-18.1,0,22.5,22.5,0,0,1-7.2-4.71A20.05,20.05,0,0,1,387,88.11a23,23,0,0,1-1.74-8.93,16.87,16.87,0,0,1,2-8.44,26.25,26.25,0,0,1,5-6.7,18.94,18.94,0,0,1,7.19-4.21A25.48,25.48,0,0,1,408.05,58.34Zm0,10.17a14.57,14.57,0,0,0-4.46,1A10.89,10.89,0,0,0,399.87,72a11.13,11.13,0,0,0-2.48,3.48,11.54,11.54,0,0,0-1,4,11,11,0,0,0,1,5,11.41,11.41,0,0,0,6.2,6.21,14.57,14.57,0,0,0,4.46,1,9.74,9.74,0,0,0,4.47-1,16.31,16.31,0,0,0,3.72-2.48,12.16,12.16,0,0,0,2.48-3.73,11,11,0,0,0,1-5,7.24,7.24,0,0,0-1-4A11.29,11.29,0,0,0,416.24,72a13.9,13.9,0,0,0-3.72-2.48A9.74,9.74,0,0,0,408.05,68.51Z"/><path class="cls-2" d="M373.08,84.14A11.66,11.66,0,0,0,382,72.48,12,12,0,0,0,380.27,66a12.83,12.83,0,0,0-5-4.71,18,18,0,0,0-8.19-1.74H350.51V100h9.92V84.63h2.23L371.09,100h11.17Zm-2.48-7.69a4.59,4.59,0,0,1-4,1.24h-6.2V67.52h6.2a5.46,5.46,0,0,1,4,1.24,5,5,0,0,1,1.49,3.72A5.29,5.29,0,0,1,370.6,76.45Z"/><rect x="451.85" y="32.35" width="1.38" height="155.06"/><path d="M501.72,133.52V121H477.81v-7.94l20.37-31.9h15.45v30.68h6.44V121h-6.44v12.51Zm0-21.67V100.28c0-3.15.17-6.39.36-9.76h-.31c-1.72,3.41-3.17,6.44-5,9.71l-7.19,11.47-.05.16Z"/><path d="M526.89,127a7.17,7.17,0,0,1,7.46-7.46c4.39,0,7.38,3,7.43,7.46a7.45,7.45,0,0,1-14.89,0Z"/><path d="M547.82,119.86c0-6.35,3.72-10.64,9.62-13.17v-.19c-5.23-2.63-7.8-6.9-7.8-11.5,0-8.87,8.21-14.71,19-14.71,12.65,0,17.88,7.09,17.88,13.43,0,4.52-2.51,9-7.84,11.56v.19c5.23,2,9.92,6.27,9.92,13,0,9.51-8.22,15.91-20.75,15.91C554.12,134.41,547.82,127,547.82,119.86Zm27.91-.46c0-4.55-3.55-7.28-8.51-8.57-4.12,1.11-6.53,4-6.53,7.77a7.33,7.33,0,0,0,7.66,7.37C572.77,126,575.73,123.15,575.73,119.4ZM561.55,94.6c0,3.54,3.24,5.84,7.61,7.12a7.25,7.25,0,0,0,5.48-6.67c0-3.23-1.92-6.5-6.58-6.5C563.75,88.55,561.55,91.35,561.55,94.6Z"/><path class="cls-3" d="M173.78,145.44h19.6a1,1,0,0,1,.56,1.77l-3.75,2.72-12.11,8.81,1.35,4.19,4.56,14c0,.14.1.28.13.43a1,1,0,0,1-1.55,1.08l-7.44-5.4c-2.6-1.89-5.2-3.77-7.79-5.68a.77.77,0,0,0-1.1,0c-5,3.62-9.91,7.21-14.87,10.82-.19.13-.37.35-.58.39a1.49,1.49,0,0,1-1-.05c-.23-.16-.32-.59-.39-.92a1.29,1.29,0,0,1,.16-.61q2.85-8.79,5.73-17.58a.76.76,0,0,0-.34-1q-7.59-5.47-15.14-11c-.43-.31-.77-.65-.59-1.23s.68-.68,1.23-.68c6.24,0,12.48,0,18.72,0a.73.73,0,0,0,.83-.62c1.9-5.87,3.83-11.72,5.75-17.57,0-.13.09-.25.12-.37a1,1,0,0,1,1.92,0c.48,1.49,1,3,1.43,4.46l4.38,13.56C173.64,145.08,173.7,145.24,173.78,145.44Z"/><path class="cls-3" d="M233.07,145.44h19.6a.94.94,0,0,1,1,.66.92.92,0,0,1-.43,1.11l-3.74,2.72-12.12,8.81c.45,1.39.9,2.79,1.36,4.19q2.27,7,4.55,14c.05.14.1.28.14.43a1,1,0,0,1-1.56,1.08l-7.44-5.4c-2.6-1.89-5.2-3.77-7.79-5.68a.77.77,0,0,0-1.1,0c-4.95,3.62-9.91,7.21-14.87,10.82-.19.13-.37.35-.58.39a1.49,1.49,0,0,1-1-.05c-.23-.16-.32-.59-.39-.92a1.29,1.29,0,0,1,.16-.61q2.85-8.79,5.74-17.58a.77.77,0,0,0-.35-1c-5.06-3.65-10.09-7.32-15.14-11-.43-.31-.77-.65-.59-1.23s.68-.68,1.24-.68c6.23,0,12.47,0,18.71,0a.73.73,0,0,0,.83-.62q2.86-8.81,5.75-17.57c0-.13.09-.25.13-.37a.94.94,0,0,1,1-.8,1,1,0,0,1,1,.79l1.44,4.46q2.18,6.78,4.37,13.56C232.93,145.08,233,145.24,233.07,145.44Z"/><path class="cls-3" d="M291.9,145.44h19.6a1,1,0,0,1,1,.66.93.93,0,0,1-.44,1.11l-3.74,2.72-12.12,8.81c.45,1.39.9,2.79,1.36,4.19q2.26,7,4.55,14c.05.14.1.28.14.43a1,1,0,0,1-.31,1.15,1,1,0,0,1-1.25-.07l-7.44-5.4c-2.6-1.89-5.2-3.77-7.79-5.68a.77.77,0,0,0-1.1,0c-4.94,3.62-9.91,7.21-14.87,10.82-.19.13-.37.35-.58.39a1.46,1.46,0,0,1-1-.05c-.24-.16-.33-.59-.4-.92a1.29,1.29,0,0,1,.16-.61c1.91-5.86,3.81-11.73,5.74-17.58a.77.77,0,0,0-.35-1q-7.57-5.47-15.14-11c-.43-.31-.77-.65-.58-1.23s.67-.68,1.23-.68c6.23,0,12.47,0,18.71,0a.74.74,0,0,0,.84-.62q2.85-8.81,5.75-17.57l.12-.37a.94.94,0,0,1,.95-.8,1,1,0,0,1,1,.79l1.44,4.46q2.19,6.78,4.37,13.56Z"/><path class="cls-3" d="M351.19,145.44h19.6a1,1,0,0,1,1,.66.93.93,0,0,1-.44,1.11l-3.74,2.72-12.12,8.81c.46,1.39.9,2.79,1.36,4.19q2.28,7,4.55,14c.05.14.1.28.14.43a1,1,0,0,1-.31,1.15,1,1,0,0,1-1.25-.07l-7.43-5.4c-2.6-1.89-5.21-3.77-7.8-5.68a.77.77,0,0,0-1.1,0c-4.94,3.62-9.91,7.21-14.86,10.82-.19.13-.37.35-.58.39a1.49,1.49,0,0,1-1-.05c-.24-.16-.33-.59-.4-.92A1.29,1.29,0,0,1,327,177c1.91-5.86,3.81-11.73,5.74-17.58a.77.77,0,0,0-.35-1q-7.58-5.47-15.14-11c-.43-.31-.76-.65-.58-1.23s.68-.68,1.23-.68c6.24,0,12.47,0,18.71,0a.73.73,0,0,0,.84-.62c1.9-5.87,3.83-11.72,5.75-17.57l.12-.37a.94.94,0,0,1,1-.8,1,1,0,0,1,1,.79l1.44,4.46L351,144.91C351.06,145.08,351.12,145.24,351.19,145.44Z"/><path class="cls-3" d="M410,145.44h19.6a1,1,0,0,1,1,.66.93.93,0,0,1-.44,1.11l-3.74,2.72-12.12,8.81c.46,1.39.9,2.79,1.36,4.19q2.28,7,4.55,14c.05.14.1.28.14.43a1,1,0,0,1-.31,1.15,1,1,0,0,1-1.25-.07l-7.43-5.4c-2.6-1.89-5.21-3.77-7.8-5.68a.77.77,0,0,0-1.1,0c-4.94,3.62-9.91,7.21-14.86,10.82-.19.13-.37.35-.58.39a1.49,1.49,0,0,1-1-.05c-.24-.16-.33-.59-.4-.92a1.29,1.29,0,0,1,.16-.61c1.91-5.86,3.81-11.73,5.74-17.58a.77.77,0,0,0-.35-1q-7.58-5.47-15.14-11c-.43-.31-.76-.65-.58-1.23s.67-.68,1.23-.68c6.24,0,12.47,0,18.71,0a.74.74,0,0,0,.84-.62c1.9-5.87,3.83-11.72,5.75-17.57l.12-.37a.94.94,0,0,1,.95-.8,1,1,0,0,1,1,.79l1.44,4.46q2.19,6.78,4.37,13.56Z"/><text/></svg>